<mxfile host="app.diagrams.net" agent="Mozilla/5.0 (Windows NT 10.0; Win64; x64) AppleWebKit/537.36 (KHTML, like Gecko) Chrome/136.0.0.0 Safari/537.36" version="27.0.5">
  <diagram name="Страница — 1" id="ws2ZDZ5pcybXaS3KuQc7">
    <mxGraphModel dx="1061" dy="699" grid="1" gridSize="10" guides="1" tooltips="1" connect="1" arrows="1" fold="1" page="1" pageScale="1" pageWidth="827" pageHeight="1169" math="0" shadow="0">
      <root>
        <mxCell id="0" />
        <mxCell id="1" parent="0" />
        <mxCell id="qFvQExg8b0Atk-84hhx9-1" value="Сервера" style="verticalAlign=top;align=left;spacingTop=8;spacingLeft=2;spacingRight=12;shape=cube;size=10;direction=south;fontStyle=4;html=1;whiteSpace=wrap;" vertex="1" parent="1">
          <mxGeometry x="330" y="190" width="340" height="330" as="geometry" />
        </mxCell>
        <mxCell id="qFvQExg8b0Atk-84hhx9-3" value="BrowserClient&lt;div&gt;&lt;br&gt;&lt;/div&gt;&lt;div&gt;открытие сайта на устройстве&lt;/div&gt;" style="verticalAlign=top;align=left;spacingTop=8;spacingLeft=2;spacingRight=12;shape=cube;size=10;direction=south;fontStyle=4;html=1;whiteSpace=wrap;" vertex="1" parent="1">
          <mxGeometry x="90" y="100" width="190" height="200" as="geometry" />
        </mxCell>
        <mxCell id="qFvQExg8b0Atk-84hhx9-5" value="форма авторизации" style="shape=module;align=left;spacingLeft=20;align=center;verticalAlign=top;whiteSpace=wrap;html=1;" vertex="1" parent="1">
          <mxGeometry x="100" y="170" width="100" height="50" as="geometry" />
        </mxCell>
        <mxCell id="qFvQExg8b0Atk-84hhx9-7" value="" style="endArrow=none;html=1;rounded=0;exitX=0;exitY=0;exitDx=65;exitDy=0;exitPerimeter=0;entryX=0;entryY=0;entryDx=135;entryDy=340;entryPerimeter=0;edgeStyle=orthogonalEdgeStyle;" edge="1" parent="1" source="qFvQExg8b0Atk-84hhx9-3" target="qFvQExg8b0Atk-84hhx9-1">
          <mxGeometry width="50" height="50" relative="1" as="geometry">
            <mxPoint x="370" y="360" as="sourcePoint" />
            <mxPoint x="420" y="310" as="targetPoint" />
          </mxGeometry>
        </mxCell>
        <mxCell id="qFvQExg8b0Atk-84hhx9-13" style="edgeStyle=orthogonalEdgeStyle;rounded=0;orthogonalLoop=1;jettySize=auto;html=1;exitX=0.5;exitY=1;exitDx=0;exitDy=0;endArrow=none;startFill=0;" edge="1" parent="1" source="qFvQExg8b0Atk-84hhx9-8" target="qFvQExg8b0Atk-84hhx9-12">
          <mxGeometry relative="1" as="geometry" />
        </mxCell>
        <mxCell id="qFvQExg8b0Atk-84hhx9-8" value="" style="ellipse;whiteSpace=wrap;html=1;aspect=fixed;" vertex="1" parent="1">
          <mxGeometry x="394" y="230" width="40" height="40" as="geometry" />
        </mxCell>
        <mxCell id="qFvQExg8b0Atk-84hhx9-10" value="" style="endArrow=open;dashed=1;html=1;rounded=0;exitX=0;exitY=0;exitDx=0;exitDy=0;entryX=1;entryY=0.25;entryDx=0;entryDy=0;" edge="1" parent="1" source="qFvQExg8b0Atk-84hhx9-8" target="qFvQExg8b0Atk-84hhx9-5">
          <mxGeometry width="160" relative="1" as="geometry">
            <mxPoint x="260" y="460" as="sourcePoint" />
            <mxPoint x="420" y="460" as="targetPoint" />
          </mxGeometry>
        </mxCell>
        <mxCell id="qFvQExg8b0Atk-84hhx9-11" value="" style="endArrow=open;dashed=1;html=1;rounded=0;exitX=1;exitY=0.75;exitDx=0;exitDy=0;entryX=0;entryY=1;entryDx=0;entryDy=0;" edge="1" parent="1" source="qFvQExg8b0Atk-84hhx9-5" target="qFvQExg8b0Atk-84hhx9-8">
          <mxGeometry width="160" relative="1" as="geometry">
            <mxPoint x="270" y="450" as="sourcePoint" />
            <mxPoint x="430" y="450" as="targetPoint" />
          </mxGeometry>
        </mxCell>
        <mxCell id="qFvQExg8b0Atk-84hhx9-12" value="main.exe" style="shape=module;align=left;spacingLeft=20;align=center;verticalAlign=top;whiteSpace=wrap;html=1;" vertex="1" parent="1">
          <mxGeometry x="364" y="320" width="100" height="50" as="geometry" />
        </mxCell>
        <mxCell id="qFvQExg8b0Atk-84hhx9-15" value="ответ от сервера" style="shape=note2;boundedLbl=1;whiteSpace=wrap;html=1;size=25;verticalAlign=top;align=center;" vertex="1" parent="1">
          <mxGeometry x="364" y="80" width="120" height="60" as="geometry" />
        </mxCell>
        <mxCell id="qFvQExg8b0Atk-84hhx9-16" value="HTTP-запрос" style="shape=note2;boundedLbl=1;whiteSpace=wrap;html=1;size=25;verticalAlign=top;align=center;" vertex="1" parent="1">
          <mxGeometry x="290" y="10" width="120" height="60" as="geometry" />
        </mxCell>
        <mxCell id="qFvQExg8b0Atk-84hhx9-17" value="" style="endArrow=none;dashed=1;html=1;rounded=0;" edge="1" parent="1">
          <mxGeometry width="50" height="50" relative="1" as="geometry">
            <mxPoint x="290" y="231" as="sourcePoint" />
            <mxPoint x="350" y="70" as="targetPoint" />
            <Array as="points" />
          </mxGeometry>
        </mxCell>
        <mxCell id="qFvQExg8b0Atk-84hhx9-18" value="" style="endArrow=none;dashed=1;html=1;rounded=0;" edge="1" parent="1">
          <mxGeometry width="50" height="50" relative="1" as="geometry">
            <mxPoint x="360" y="110" as="sourcePoint" />
            <mxPoint x="320" y="210" as="targetPoint" />
          </mxGeometry>
        </mxCell>
        <mxCell id="qFvQExg8b0Atk-84hhx9-19" value="Интерфейс&amp;nbsp;&lt;div&gt;сайта&lt;/div&gt;" style="text;html=1;align=center;verticalAlign=middle;resizable=0;points=[];autosize=1;strokeColor=none;fillColor=none;" vertex="1" parent="1">
          <mxGeometry x="414" y="210" width="90" height="40" as="geometry" />
        </mxCell>
        <mxCell id="qFvQExg8b0Atk-84hhx9-37" style="edgeStyle=orthogonalEdgeStyle;rounded=0;orthogonalLoop=1;jettySize=auto;html=1;entryX=0;entryY=0;entryDx=170;entryDy=340;entryPerimeter=0;endArrow=none;startFill=0;" edge="1" parent="1" source="qFvQExg8b0Atk-84hhx9-21" target="qFvQExg8b0Atk-84hhx9-1">
          <mxGeometry relative="1" as="geometry">
            <mxPoint x="280" y="370" as="targetPoint" />
          </mxGeometry>
        </mxCell>
        <mxCell id="qFvQExg8b0Atk-84hhx9-21" value="Сервер банка" style="verticalAlign=top;align=left;spacingTop=8;spacingLeft=2;spacingRight=12;shape=cube;size=10;direction=south;fontStyle=4;html=1;whiteSpace=wrap;" vertex="1" parent="1">
          <mxGeometry x="95" y="420" width="180" height="120" as="geometry" />
        </mxCell>
        <mxCell id="qFvQExg8b0Atk-84hhx9-22" value="форма для&lt;div&gt;оплаты&lt;/div&gt;" style="shape=module;align=left;spacingLeft=20;align=center;verticalAlign=top;whiteSpace=wrap;html=1;" vertex="1" parent="1">
          <mxGeometry x="100" y="230" width="100" height="50" as="geometry" />
        </mxCell>
        <mxCell id="qFvQExg8b0Atk-84hhx9-35" value="" style="edgeStyle=orthogonalEdgeStyle;rounded=0;orthogonalLoop=1;jettySize=auto;html=1;entryX=0.25;entryY=1;entryDx=0;entryDy=0;endArrow=none;startFill=0;" edge="1" parent="1" source="qFvQExg8b0Atk-84hhx9-23" target="qFvQExg8b0Atk-84hhx9-12">
          <mxGeometry relative="1" as="geometry" />
        </mxCell>
        <mxCell id="qFvQExg8b0Atk-84hhx9-23" value="" style="ellipse;whiteSpace=wrap;html=1;aspect=fixed;" vertex="1" parent="1">
          <mxGeometry x="368" y="410" width="40" height="40" as="geometry" />
        </mxCell>
        <mxCell id="qFvQExg8b0Atk-84hhx9-24" value="" style="endArrow=open;dashed=1;html=1;rounded=0;entryX=1;entryY=0.25;entryDx=0;entryDy=0;exitX=0;exitY=0.5;exitDx=0;exitDy=0;" edge="1" parent="1" source="qFvQExg8b0Atk-84hhx9-23" target="qFvQExg8b0Atk-84hhx9-25">
          <mxGeometry width="160" relative="1" as="geometry">
            <mxPoint x="290" y="430" as="sourcePoint" />
            <mxPoint x="400" y="390" as="targetPoint" />
          </mxGeometry>
        </mxCell>
        <mxCell id="qFvQExg8b0Atk-84hhx9-25" value="oplata.exe" style="shape=module;align=left;spacingLeft=20;align=center;verticalAlign=top;whiteSpace=wrap;html=1;" vertex="1" parent="1">
          <mxGeometry x="110" y="455" width="100" height="50" as="geometry" />
        </mxCell>
        <mxCell id="qFvQExg8b0Atk-84hhx9-26" value="&quot;База данных&quot;&lt;br&gt;Пользователь сайта" style="html=1;whiteSpace=wrap;" vertex="1" parent="1">
          <mxGeometry x="510" y="365" width="110" height="50" as="geometry" />
        </mxCell>
        <mxCell id="qFvQExg8b0Atk-84hhx9-27" value="&quot;База данных&quot;&lt;br&gt;Сертификаты" style="html=1;whiteSpace=wrap;" vertex="1" parent="1">
          <mxGeometry x="510" y="430" width="110" height="50" as="geometry" />
        </mxCell>
        <mxCell id="qFvQExg8b0Atk-84hhx9-28" value="" style="endArrow=open;dashed=1;html=1;rounded=0;entryX=0;entryY=0.75;entryDx=0;entryDy=0;exitX=0.75;exitY=1;exitDx=0;exitDy=0;" edge="1" parent="1" source="qFvQExg8b0Atk-84hhx9-12" target="qFvQExg8b0Atk-84hhx9-27">
          <mxGeometry width="160" relative="1" as="geometry">
            <mxPoint x="380" y="445" as="sourcePoint" />
            <mxPoint x="220" y="478" as="targetPoint" />
          </mxGeometry>
        </mxCell>
        <mxCell id="qFvQExg8b0Atk-84hhx9-29" value="controller.exe" style="shape=module;align=left;spacingLeft=20;align=center;verticalAlign=top;whiteSpace=wrap;html=1;" vertex="1" parent="1">
          <mxGeometry x="510" y="260" width="100" height="50" as="geometry" />
        </mxCell>
        <mxCell id="qFvQExg8b0Atk-84hhx9-31" value="" style="endArrow=none;dashed=1;html=1;rounded=0;exitX=1;exitY=0.5;exitDx=0;exitDy=0;" edge="1" parent="1" source="qFvQExg8b0Atk-84hhx9-12">
          <mxGeometry width="50" height="50" relative="1" as="geometry">
            <mxPoint x="484" y="350" as="sourcePoint" />
            <mxPoint x="560" y="340" as="targetPoint" />
            <Array as="points" />
          </mxGeometry>
        </mxCell>
        <mxCell id="qFvQExg8b0Atk-84hhx9-32" value="" style="endArrow=open;dashed=1;html=1;rounded=0;entryX=0.5;entryY=1;entryDx=0;entryDy=0;" edge="1" parent="1" target="qFvQExg8b0Atk-84hhx9-29">
          <mxGeometry width="160" relative="1" as="geometry">
            <mxPoint x="560" y="340" as="sourcePoint" />
            <mxPoint x="520" y="478" as="targetPoint" />
          </mxGeometry>
        </mxCell>
        <mxCell id="qFvQExg8b0Atk-84hhx9-33" value="" style="endArrow=open;dashed=1;html=1;rounded=0;entryX=0.458;entryY=0.035;entryDx=0;entryDy=0;entryPerimeter=0;" edge="1" parent="1" target="qFvQExg8b0Atk-84hhx9-26">
          <mxGeometry width="160" relative="1" as="geometry">
            <mxPoint x="560" y="340" as="sourcePoint" />
            <mxPoint x="570" y="320" as="targetPoint" />
          </mxGeometry>
        </mxCell>
        <mxCell id="qFvQExg8b0Atk-84hhx9-34" value="" style="endArrow=open;dashed=1;html=1;rounded=0;entryX=0.5;entryY=1;entryDx=0;entryDy=0;exitX=1;exitY=0.75;exitDx=0;exitDy=0;" edge="1" parent="1" source="qFvQExg8b0Atk-84hhx9-25" target="qFvQExg8b0Atk-84hhx9-23">
          <mxGeometry width="160" relative="1" as="geometry">
            <mxPoint x="380" y="445" as="sourcePoint" />
            <mxPoint x="220" y="478" as="targetPoint" />
          </mxGeometry>
        </mxCell>
      </root>
    </mxGraphModel>
  </diagram>
</mxfile>
